<mxfile host="65bd71144e">
    <diagram id="L-aGFKM3M-gwWhaBmC1s" name="grenouillère">
        <mxGraphModel dx="1863" dy="1024" grid="0" gridSize="10" guides="1" tooltips="1" connect="1" arrows="1" fold="1" page="0" pageScale="1" pageWidth="827" pageHeight="1169" math="0" shadow="0">
            <root>
                <mxCell id="0"/>
                <mxCell id="1" parent="0"/>
                <mxCell id="2" value="users" style="swimlane;fontStyle=0;childLayout=stackLayout;horizontal=1;startSize=26;fillColor=#0050ef;horizontalStack=0;resizeParent=1;resizeParentMax=0;resizeLast=0;collapsible=1;marginBottom=0;fontColor=#ffffff;strokeColor=#001DBC;" parent="1" vertex="1">
                    <mxGeometry x="182" y="-291" width="276" height="216" as="geometry"/>
                </mxCell>
                <mxCell id="3" value="Id_users [ PK ]" style="text;strokeColor=none;fillColor=none;align=left;verticalAlign=top;spacingLeft=4;spacingRight=4;overflow=hidden;rotatable=0;points=[[0,0.5],[1,0.5]];portConstraint=eastwest;" parent="2" vertex="1">
                    <mxGeometry y="26" width="276" height="26" as="geometry"/>
                </mxCell>
                <mxCell id="5" value="last_name_users(varchar 180)&#10;frist_name_ users(varchar 180)&#10;phone_users ( varchar 10 NULL)&#10;created_at_users ( date_time )&#10;modified_at_users ( date_time )&#10;role_users ( varchar ) &#10;city_users ( varcar 200)&#10;Postal users_company (varchar 5)&#10;address_users ( varchar 255)   &#10;" style="text;strokeColor=none;fillColor=none;align=left;verticalAlign=top;spacingLeft=4;spacingRight=4;overflow=hidden;rotatable=0;points=[[0,0.5],[1,0.5]];portConstraint=eastwest;" parent="2" vertex="1">
                    <mxGeometry y="52" width="276" height="164" as="geometry"/>
                </mxCell>
                <mxCell id="6" value="company" style="swimlane;fontStyle=0;childLayout=stackLayout;horizontal=1;startSize=26;fillColor=#d80073;horizontalStack=0;resizeParent=1;resizeParentMax=0;resizeLast=0;collapsible=1;marginBottom=0;fontColor=#ffffff;strokeColor=#A50040;" parent="1" vertex="1">
                    <mxGeometry x="571" y="-330" width="271" height="255" as="geometry"/>
                </mxCell>
                <mxCell id="7" value="Id_company [ PK ]" style="text;strokeColor=none;fillColor=none;align=left;verticalAlign=top;spacingLeft=4;spacingRight=4;overflow=hidden;rotatable=0;points=[[0,0.5],[1,0.5]];portConstraint=eastwest;" parent="6" vertex="1">
                    <mxGeometry y="26" width="271" height="26" as="geometry"/>
                </mxCell>
                <mxCell id="8" value="status_company (varchar 180)&#10;city_company ( varcar 200)&#10;Postal code_company (varchar 5)&#10;address_company ( varchar 255)&#10;x_company&#10;y_company&#10;cni_company (varchar 180)&#10;siret_company ( varchar 10 NULL )&#10;rib( varchar 10 NULL)&#10;created_at_company ( date_time )&#10;modified_at_company ( date_time )&#10;hourly_rate_company ( Float )&#10;child_capacity_company( int)" style="text;strokeColor=none;fillColor=none;align=left;verticalAlign=top;spacingLeft=4;spacingRight=4;overflow=hidden;rotatable=0;points=[[0,0.5],[1,0.5]];portConstraint=eastwest;" parent="6" vertex="1">
                    <mxGeometry y="52" width="271" height="203" as="geometry"/>
                </mxCell>
                <mxCell id="10" value="Child" style="swimlane;fontStyle=0;childLayout=stackLayout;horizontal=1;startSize=26;fillColor=#60a917;horizontalStack=0;resizeParent=1;resizeParentMax=0;resizeLast=0;collapsible=1;marginBottom=0;fontColor=#ffffff;strokeColor=#2D7600;" parent="1" vertex="1">
                    <mxGeometry x="174" y="191.5" width="296" height="175" as="geometry"/>
                </mxCell>
                <mxCell id="11" value="Id_child [ PK ]" style="text;strokeColor=none;fillColor=none;align=left;verticalAlign=top;spacingLeft=4;spacingRight=4;overflow=hidden;rotatable=0;points=[[0,0.5],[1,0.5]];portConstraint=eastwest;" parent="10" vertex="1">
                    <mxGeometry y="26" width="296" height="26" as="geometry"/>
                </mxCell>
                <mxCell id="12" value="fk_parent ( reference to id_users )&#10;&#10;last_name_child (varchar 180)&#10;frist_name_ child (varchar 180)&#10;date_of_Birth_child ( varchar 10 NULL )&#10;created_at_child ( varchar 10 )&#10;modified_at_child ( varchar 10 NULL )&#10;need_chiled ( Text )&#10;" style="text;strokeColor=none;fillColor=none;align=left;verticalAlign=top;spacingLeft=4;spacingRight=4;overflow=hidden;rotatable=0;points=[[0,0.5],[1,0.5]];portConstraint=eastwest;" parent="10" vertex="1">
                    <mxGeometry y="52" width="296" height="123" as="geometry"/>
                </mxCell>
                <mxCell id="13" value="Allergy" style="swimlane;fontStyle=0;childLayout=stackLayout;horizontal=1;startSize=26;fillColor=#a20025;horizontalStack=0;resizeParent=1;resizeParentMax=0;resizeLast=0;collapsible=1;marginBottom=0;strokeColor=#6F0000;fontColor=#ffffff;" parent="1" vertex="1">
                    <mxGeometry x="-600" y="342" width="247" height="96" as="geometry"/>
                </mxCell>
                <mxCell id="14" value="Id_allergy [ PK ]" style="text;strokeColor=none;fillColor=none;align=left;verticalAlign=top;spacingLeft=4;spacingRight=4;overflow=hidden;rotatable=0;points=[[0,0.5],[1,0.5]];portConstraint=eastwest;" parent="13" vertex="1">
                    <mxGeometry y="26" width="247" height="26" as="geometry"/>
                </mxCell>
                <mxCell id="15" value="name_allergy (varchar 180)&#10;" style="text;strokeColor=none;fillColor=none;align=left;verticalAlign=top;spacingLeft=4;spacingRight=4;overflow=hidden;rotatable=0;points=[[0,0.5],[1,0.5]];portConstraint=eastwest;" parent="13" vertex="1">
                    <mxGeometry y="52" width="247" height="44" as="geometry"/>
                </mxCell>
                <mxCell id="16" value="Disease" style="swimlane;fontStyle=0;childLayout=stackLayout;horizontal=1;startSize=26;fillColor=#a20025;horizontalStack=0;resizeParent=1;resizeParentMax=0;resizeLast=0;collapsible=1;marginBottom=0;strokeColor=#6F0000;fontColor=#ffffff;" parent="1" vertex="1">
                    <mxGeometry x="-597" y="206" width="244" height="96" as="geometry"/>
                </mxCell>
                <mxCell id="17" value="Id_disease [ PK ]" style="text;strokeColor=none;fillColor=none;align=left;verticalAlign=top;spacingLeft=4;spacingRight=4;overflow=hidden;rotatable=0;points=[[0,0.5],[1,0.5]];portConstraint=eastwest;" parent="16" vertex="1">
                    <mxGeometry y="26" width="244" height="26" as="geometry"/>
                </mxCell>
                <mxCell id="18" value="name_disease (varchar 180)&#10;" style="text;strokeColor=none;fillColor=none;align=left;verticalAlign=top;spacingLeft=4;spacingRight=4;overflow=hidden;rotatable=0;points=[[0,0.5],[1,0.5]];portConstraint=eastwest;" parent="16" vertex="1">
                    <mxGeometry y="52" width="244" height="44" as="geometry"/>
                </mxCell>
                <mxCell id="19" value="disease_child" style="swimlane;fontStyle=0;childLayout=stackLayout;horizontal=1;startSize=26;horizontalStack=0;resizeParent=1;resizeParentMax=0;resizeLast=0;collapsible=1;marginBottom=0;" parent="1" vertex="1">
                    <mxGeometry x="-229" y="208" width="276" height="88" as="geometry"/>
                </mxCell>
                <mxCell id="20" value="fk_child[ FK ]&#10;fk_disease [ FK ]&#10;description_disease_child ( text 1000 )" style="text;strokeColor=none;fillColor=none;align=left;verticalAlign=top;spacingLeft=4;spacingRight=4;overflow=hidden;rotatable=0;points=[[0,0.5],[1,0.5]];portConstraint=eastwest;" parent="19" vertex="1">
                    <mxGeometry y="26" width="276" height="62" as="geometry"/>
                </mxCell>
                <mxCell id="22" value="allergy_child" style="swimlane;fontStyle=0;childLayout=stackLayout;horizontal=1;startSize=26;horizontalStack=0;resizeParent=1;resizeParentMax=0;resizeLast=0;collapsible=1;marginBottom=0;" parent="1" vertex="1">
                    <mxGeometry x="-228" y="342" width="275" height="88" as="geometry"/>
                </mxCell>
                <mxCell id="23" value="fk_child [ FK ]&#10;fk_allergy [ FK ]&#10;description_allergy_child ( text 1000 )" style="text;strokeColor=none;fillColor=none;align=left;verticalAlign=top;spacingLeft=4;spacingRight=4;overflow=hidden;rotatable=0;points=[[0,0.5],[1,0.5]];portConstraint=eastwest;" parent="22" vertex="1">
                    <mxGeometry y="26" width="275" height="62" as="geometry"/>
                </mxCell>
                <mxCell id="25" value="" style="endArrow=none;html=1;exitX=1;exitY=0.5;exitDx=0;exitDy=0;entryX=0;entryY=0.5;entryDx=0;entryDy=0;startArrow=none;" parent="1" source="56" target="20" edge="1">
                    <mxGeometry width="50" height="50" relative="1" as="geometry">
                        <mxPoint x="24" y="150" as="sourcePoint"/>
                        <mxPoint x="74" y="100" as="targetPoint"/>
                    </mxGeometry>
                </mxCell>
                <mxCell id="26" value="" style="endArrow=none;html=1;exitX=1;exitY=0.5;exitDx=0;exitDy=0;entryX=0;entryY=0.5;entryDx=0;entryDy=0;startArrow=none;" parent="1" source="58" target="23" edge="1">
                    <mxGeometry width="50" height="50" relative="1" as="geometry">
                        <mxPoint x="-342.26800000000003" y="274.1600000000001" as="sourcePoint"/>
                        <mxPoint x="-219.00000000000023" y="275.0000000000002" as="targetPoint"/>
                    </mxGeometry>
                </mxCell>
                <mxCell id="27" value="" style="endArrow=none;html=1;exitX=1;exitY=0.5;exitDx=0;exitDy=0;entryX=-0.01;entryY=0.346;entryDx=0;entryDy=0;entryPerimeter=0;startArrow=none;" parent="1" source="60" target="12" edge="1">
                    <mxGeometry width="50" height="50" relative="1" as="geometry">
                        <mxPoint x="-332.26800000000003" y="284.1600000000001" as="sourcePoint"/>
                        <mxPoint x="-209.00000000000023" y="285.0000000000002" as="targetPoint"/>
                    </mxGeometry>
                </mxCell>
                <mxCell id="28" value="" style="endArrow=none;html=1;exitX=0;exitY=1;exitDx=0;exitDy=0;entryX=1;entryY=0.5;entryDx=0;entryDy=0;startArrow=none;" parent="1" source="62" target="23" edge="1">
                    <mxGeometry width="50" height="50" relative="1" as="geometry">
                        <mxPoint x="-322.26800000000003" y="294.1600000000001" as="sourcePoint"/>
                        <mxPoint x="-199.00000000000023" y="295.0000000000002" as="targetPoint"/>
                    </mxGeometry>
                </mxCell>
                <mxCell id="29" value="" style="endArrow=none;html=1;exitX=0.5;exitY=1;exitDx=0;exitDy=0;entryX=0.5;entryY=0;entryDx=0;entryDy=0;startArrow=none;" parent="1" source="68" target="10" edge="1">
                    <mxGeometry width="50" height="50" relative="1" as="geometry">
                        <mxPoint x="319.9200000000001" y="153.14999999999986" as="sourcePoint"/>
                        <mxPoint x="179.24" y="308.48199999999997" as="targetPoint"/>
                    </mxGeometry>
                </mxCell>
                <mxCell id="30" value="Slot" style="swimlane;fontStyle=0;childLayout=stackLayout;horizontal=1;startSize=26;fillColor=#fa6800;horizontalStack=0;resizeParent=1;resizeParentMax=0;resizeLast=0;collapsible=1;marginBottom=0;strokeColor=#C73500;fontColor=#000000;" parent="1" vertex="1">
                    <mxGeometry x="566" y="191.5" width="276" height="169" as="geometry">
                        <mxRectangle x="566" y="191.5" width="47" height="26" as="alternateBounds"/>
                    </mxGeometry>
                </mxCell>
                <mxCell id="31" value="Id_slot [ PK ]" style="text;strokeColor=none;fillColor=none;align=left;verticalAlign=top;spacingLeft=4;spacingRight=4;overflow=hidden;rotatable=0;points=[[0,0.5],[1,0.5]];portConstraint=eastwest;" parent="30" vertex="1">
                    <mxGeometry y="26" width="276" height="26" as="geometry"/>
                </mxCell>
                <mxCell id="32" value="Fk_schedule ( reference to id_schedule )&#10;Fk_company ( reference id_company )&#10;&#10;Description_slot ( Text )&#10;date_slot ( date ) &#10;child_remaining ( int ) &#10;&#10;&#10;" style="text;strokeColor=none;fillColor=none;align=left;verticalAlign=top;spacingLeft=4;spacingRight=4;overflow=hidden;rotatable=0;points=[[0,0.5],[1,0.5]];portConstraint=eastwest;" parent="30" vertex="1">
                    <mxGeometry y="52" width="276" height="117" as="geometry"/>
                </mxCell>
                <mxCell id="38" value="planning" style="swimlane;fontStyle=0;childLayout=stackLayout;horizontal=1;startSize=26;fillColor=#647687;horizontalStack=0;resizeParent=1;resizeParentMax=0;resizeLast=0;collapsible=1;marginBottom=0;fontColor=#ffffff;strokeColor=#314354;" parent="1" vertex="1">
                    <mxGeometry x="911" y="-14" width="276" height="100" as="geometry">
                        <mxRectangle x="1029" y="219" width="75" height="26" as="alternateBounds"/>
                    </mxGeometry>
                </mxCell>
                <mxCell id="39" value="Id_planning  [ PK ]" style="text;strokeColor=none;fillColor=none;align=left;verticalAlign=top;spacingLeft=4;spacingRight=4;overflow=hidden;rotatable=0;points=[[0,0.5],[1,0.5]];portConstraint=eastwest;" parent="38" vertex="1">
                    <mxGeometry y="26" width="276" height="26" as="geometry"/>
                </mxCell>
                <mxCell id="40" value="libelle_planning&#10;" style="text;strokeColor=none;fillColor=none;align=left;verticalAlign=top;spacingLeft=4;spacingRight=4;overflow=hidden;rotatable=0;points=[[0,0.5],[1,0.5]];portConstraint=eastwest;" parent="38" vertex="1">
                    <mxGeometry y="52" width="276" height="48" as="geometry"/>
                </mxCell>
                <mxCell id="42" value="Facture" style="swimlane;fontStyle=0;childLayout=stackLayout;horizontal=1;startSize=26;fillColor=#e3c800;horizontalStack=0;resizeParent=1;resizeParentMax=0;resizeLast=0;collapsible=1;marginBottom=0;fontColor=#000000;strokeColor=#B09500;" vertex="1" parent="1">
                    <mxGeometry x="953" y="606" width="234" height="169" as="geometry"/>
                </mxCell>
                <mxCell id="43" value="Id_facture [ PK ]" style="text;strokeColor=none;fillColor=none;align=left;verticalAlign=top;spacingLeft=4;spacingRight=4;overflow=hidden;rotatable=0;points=[[0,0.5],[1,0.5]];portConstraint=eastwest;" vertex="1" parent="42">
                    <mxGeometry y="26" width="234" height="26" as="geometry"/>
                </mxCell>
                <mxCell id="44" value="Fk_company ( reference to company )&#10;Fk_users ( reference to users )&#10;&#10;date_facture (date)   &#10;" style="text;strokeColor=none;fillColor=none;align=left;verticalAlign=top;spacingLeft=4;spacingRight=4;overflow=hidden;rotatable=0;points=[[0,0.5],[1,0.5]];portConstraint=eastwest;" vertex="1" parent="42">
                    <mxGeometry y="52" width="234" height="117" as="geometry"/>
                </mxCell>
                <mxCell id="49" value="reservation" style="swimlane;fontStyle=0;childLayout=stackLayout;horizontal=1;startSize=26;fillColor=#a20025;horizontalStack=0;resizeParent=1;resizeParentMax=0;resizeLast=0;collapsible=1;marginBottom=0;fontColor=#ffffff;strokeColor=#6F0000;" vertex="1" parent="1">
                    <mxGeometry x="229" y="665" width="250" height="122" as="geometry"/>
                </mxCell>
                <mxCell id="50" value="Id_reservation[ PK ]" style="text;strokeColor=none;fillColor=none;align=left;verticalAlign=top;spacingLeft=4;spacingRight=4;overflow=hidden;rotatable=0;points=[[0,0.5],[1,0.5]];portConstraint=eastwest;" vertex="1" parent="49">
                    <mxGeometry y="26" width="250" height="26" as="geometry"/>
                </mxCell>
                <mxCell id="51" value="&#10;Fk_child ( int )&#10;Fk_slot ( int )&#10;Fk_facture&#10;" style="text;strokeColor=none;fillColor=none;align=left;verticalAlign=top;spacingLeft=4;spacingRight=4;overflow=hidden;rotatable=0;points=[[0,0.5],[1,0.5]];portConstraint=eastwest;" vertex="1" parent="49">
                    <mxGeometry y="52" width="250" height="70" as="geometry"/>
                </mxCell>
                <mxCell id="56" value="0 , N" style="text;html=1;strokeColor=none;fillColor=none;align=center;verticalAlign=middle;whiteSpace=wrap;rounded=0;" vertex="1" parent="1">
                    <mxGeometry x="-335" y="254" width="60" height="30" as="geometry"/>
                </mxCell>
                <mxCell id="57" value="" style="endArrow=none;html=1;exitX=1.003;exitY=0.14;exitDx=0;exitDy=0;exitPerimeter=0;entryX=0;entryY=0.5;entryDx=0;entryDy=0;" edge="1" parent="1" source="18" target="56">
                    <mxGeometry width="50" height="50" relative="1" as="geometry">
                        <mxPoint x="-352.26800000000003" y="264.1600000000001" as="sourcePoint"/>
                        <mxPoint x="-228.99999999999977" y="265" as="targetPoint"/>
                    </mxGeometry>
                </mxCell>
                <mxCell id="58" value="0 , N" style="text;html=1;strokeColor=none;fillColor=none;align=center;verticalAlign=middle;whiteSpace=wrap;rounded=0;" vertex="1" parent="1">
                    <mxGeometry x="-328" y="382" width="60" height="30" as="geometry"/>
                </mxCell>
                <mxCell id="59" value="" style="endArrow=none;html=1;exitX=1.012;exitY=1.12;exitDx=0;exitDy=0;entryX=0;entryY=0.5;entryDx=0;entryDy=0;exitPerimeter=0;" edge="1" parent="1" source="14" target="58">
                    <mxGeometry width="50" height="50" relative="1" as="geometry">
                        <mxPoint x="-350.03600000000006" y="397.1199999999999" as="sourcePoint"/>
                        <mxPoint x="-228" y="399" as="targetPoint"/>
                    </mxGeometry>
                </mxCell>
                <mxCell id="60" value="0 , N" style="text;html=1;strokeColor=none;fillColor=none;align=center;verticalAlign=middle;whiteSpace=wrap;rounded=0;" vertex="1" parent="1">
                    <mxGeometry x="63" y="258" width="60" height="30" as="geometry"/>
                </mxCell>
                <mxCell id="61" value="" style="endArrow=none;html=1;exitX=1;exitY=0.5;exitDx=0;exitDy=0;entryX=-0.01;entryY=0.346;entryDx=0;entryDy=0;entryPerimeter=0;" edge="1" parent="1" source="20" target="60">
                    <mxGeometry width="50" height="50" relative="1" as="geometry">
                        <mxPoint x="47.00000000000023" y="265" as="sourcePoint"/>
                        <mxPoint x="172.11000000000013" y="283.2900000000002" as="targetPoint"/>
                    </mxGeometry>
                </mxCell>
                <mxCell id="62" value="0 , N" style="text;html=1;strokeColor=none;fillColor=none;align=center;verticalAlign=middle;whiteSpace=wrap;rounded=0;" vertex="1" parent="1">
                    <mxGeometry x="72" y="338" width="60" height="30" as="geometry"/>
                </mxCell>
                <mxCell id="63" value="" style="endArrow=none;html=1;exitX=0.004;exitY=0.367;exitDx=0;exitDy=0;exitPerimeter=0;entryX=1;entryY=0;entryDx=0;entryDy=0;" edge="1" parent="1" source="12" target="62">
                    <mxGeometry width="50" height="50" relative="1" as="geometry">
                        <mxPoint x="171.24299999999994" y="287.3150000000003" as="sourcePoint"/>
                        <mxPoint x="47" y="399" as="targetPoint"/>
                    </mxGeometry>
                </mxCell>
                <mxCell id="68" value="1" style="text;html=1;strokeColor=none;fillColor=none;align=center;verticalAlign=middle;whiteSpace=wrap;rounded=0;" vertex="1" parent="1">
                    <mxGeometry x="292" y="131" width="60" height="30" as="geometry"/>
                </mxCell>
                <mxCell id="69" value="0 , N" style="text;html=1;strokeColor=none;fillColor=none;align=center;verticalAlign=middle;whiteSpace=wrap;rounded=0;" vertex="1" parent="1">
                    <mxGeometry x="289.5" y="-37" width="60" height="30" as="geometry"/>
                </mxCell>
                <mxCell id="72" value="" style="endArrow=none;html=1;entryX=0.5;entryY=0;entryDx=0;entryDy=0;" edge="1" parent="1" target="69">
                    <mxGeometry width="50" height="50" relative="1" as="geometry">
                        <mxPoint x="320" y="-71" as="sourcePoint"/>
                        <mxPoint x="319.5" y="123" as="targetPoint"/>
                    </mxGeometry>
                </mxCell>
                <mxCell id="73" value="Un parrent peut avoit un ou plusieur&amp;nbsp;&lt;br&gt;enfant, un enfant peut avoir&lt;br&gt;qu'un parent" style="ellipse;whiteSpace=wrap;html=1;fillColor=#bac8d3;strokeColor=#23445d;" vertex="1" parent="1">
                    <mxGeometry x="202.5" y="12" width="235" height="100" as="geometry"/>
                </mxCell>
                <mxCell id="74" value="" style="endArrow=none;html=1;exitX=0.5;exitY=0;exitDx=0;exitDy=0;entryX=0.5;entryY=1;entryDx=0;entryDy=0;" edge="1" parent="1" source="73" target="69">
                    <mxGeometry width="50" height="50" relative="1" as="geometry">
                        <mxPoint x="331.932" y="-100.18000000000006" as="sourcePoint"/>
                        <mxPoint x="330" y="-51" as="targetPoint"/>
                    </mxGeometry>
                </mxCell>
                <mxCell id="76" value="Une entreprise peut être présente dans&lt;br&gt;plusieurs emplacement.&lt;br&gt;Un slot correspond à une entreprise." style="ellipse;whiteSpace=wrap;html=1;fillColor=#bac8d3;strokeColor=#23445d;" vertex="1" parent="1">
                    <mxGeometry x="586.5" y="-9" width="235" height="100" as="geometry"/>
                </mxCell>
                <mxCell id="77" value="" style="endArrow=none;html=1;entryX=0.5;entryY=0;entryDx=0;entryDy=0;" edge="1" parent="1" source="8" target="78">
                    <mxGeometry width="50" height="50" relative="1" as="geometry">
                        <mxPoint x="699" y="-143" as="sourcePoint"/>
                        <mxPoint x="693" y="-103" as="targetPoint"/>
                    </mxGeometry>
                </mxCell>
                <mxCell id="78" value="0 , N" style="text;html=1;strokeColor=none;fillColor=none;align=center;verticalAlign=middle;whiteSpace=wrap;rounded=0;" vertex="1" parent="1">
                    <mxGeometry x="674" y="-61" width="60" height="30" as="geometry"/>
                </mxCell>
                <mxCell id="84" value="" style="endArrow=none;html=1;exitX=0.5;exitY=1;exitDx=0;exitDy=0;" edge="1" parent="1" source="73" target="68">
                    <mxGeometry width="50" height="50" relative="1" as="geometry">
                        <mxPoint x="331.932" y="-100.18000000000006" as="sourcePoint"/>
                        <mxPoint x="330" y="-51" as="targetPoint"/>
                    </mxGeometry>
                </mxCell>
                <mxCell id="85" value="1" style="text;html=1;strokeColor=none;fillColor=none;align=center;verticalAlign=middle;whiteSpace=wrap;rounded=0;" vertex="1" parent="1">
                    <mxGeometry x="674" y="134" width="60" height="30" as="geometry"/>
                </mxCell>
                <mxCell id="86" value="" style="endArrow=none;html=1;exitX=0.5;exitY=1;exitDx=0;exitDy=0;entryX=0.5;entryY=0;entryDx=0;entryDy=0;" edge="1" parent="1" source="76" target="85">
                    <mxGeometry width="50" height="50" relative="1" as="geometry">
                        <mxPoint x="330" y="98" as="sourcePoint"/>
                        <mxPoint x="329.6500000000001" y="133" as="targetPoint"/>
                    </mxGeometry>
                </mxCell>
                <mxCell id="87" value="" style="endArrow=none;html=1;exitX=0.5;exitY=1;exitDx=0;exitDy=0;startArrow=none;" edge="1" parent="1" source="85" target="30">
                    <mxGeometry width="50" height="50" relative="1" as="geometry">
                        <mxPoint x="329.9200000000001" y="163.14999999999986" as="sourcePoint"/>
                        <mxPoint x="329.5000000000002" y="201.5" as="targetPoint"/>
                    </mxGeometry>
                </mxCell>
                <mxCell id="91" value="" style="endArrow=none;html=1;exitX=0.5;exitY=0;exitDx=0;exitDy=0;entryX=0.5;entryY=1;entryDx=0;entryDy=0;" edge="1" parent="1" source="76" target="78">
                    <mxGeometry width="50" height="50" relative="1" as="geometry">
                        <mxPoint x="330" y="-2" as="sourcePoint"/>
                        <mxPoint x="330" y="-21" as="targetPoint"/>
                    </mxGeometry>
                </mxCell>
                <mxCell id="92" value="Un slot ne peut avoir qu'un&amp;nbsp;&lt;span style=&quot;text-align: left&quot;&gt;planning&lt;/span&gt;,&lt;br&gt;un&amp;nbsp;&lt;span style=&quot;text-align: left&quot;&gt;planning&amp;nbsp;&lt;/span&gt;peut être présent dans&lt;br&gt;plusieurs slot" style="ellipse;whiteSpace=wrap;html=1;fillColor=#bac8d3;strokeColor=#23445d;" vertex="1" parent="1">
                    <mxGeometry x="945" y="249" width="235" height="100" as="geometry"/>
                </mxCell>
                <mxCell id="93" value="" style="endArrow=none;html=1;exitX=0;exitY=0.5;exitDx=0;exitDy=0;entryX=1;entryY=0.5;entryDx=0;entryDy=0;startArrow=none;" edge="1" parent="1" source="94" target="32">
                    <mxGeometry width="50" height="50" relative="1" as="geometry">
                        <mxPoint x="331.9319999999998" y="-64.17999999999984" as="sourcePoint"/>
                        <mxPoint x="329.5" y="-27" as="targetPoint"/>
                    </mxGeometry>
                </mxCell>
                <mxCell id="94" value="1" style="text;html=1;strokeColor=none;fillColor=none;align=center;verticalAlign=middle;whiteSpace=wrap;rounded=0;" vertex="1" parent="1">
                    <mxGeometry x="870" y="284" width="60" height="30" as="geometry"/>
                </mxCell>
                <mxCell id="95" value="" style="endArrow=none;html=1;exitX=0;exitY=0.5;exitDx=0;exitDy=0;entryX=1;entryY=0.5;entryDx=0;entryDy=0;" edge="1" parent="1" source="92" target="94">
                    <mxGeometry width="50" height="50" relative="1" as="geometry">
                        <mxPoint x="1040" y="288" as="sourcePoint"/>
                        <mxPoint x="842.0000000000005" y="302" as="targetPoint"/>
                    </mxGeometry>
                </mxCell>
                <mxCell id="97" value="" style="endArrow=none;html=1;entryX=0.5;entryY=0;entryDx=0;entryDy=0;startArrow=none;exitX=0.5;exitY=1;exitDx=0;exitDy=0;" edge="1" parent="1" source="98" target="92">
                    <mxGeometry width="50" height="50" relative="1" as="geometry">
                        <mxPoint x="1089" y="189" as="sourcePoint"/>
                        <mxPoint x="714" y="144" as="targetPoint"/>
                    </mxGeometry>
                </mxCell>
                <mxCell id="98" value="0 , N" style="text;html=1;strokeColor=none;fillColor=none;align=center;verticalAlign=middle;whiteSpace=wrap;rounded=0;" vertex="1" parent="1">
                    <mxGeometry x="1032.5" y="161" width="60" height="30" as="geometry"/>
                </mxCell>
                <mxCell id="99" value="" style="endArrow=none;html=1;exitX=0.548;exitY=1.077;exitDx=0;exitDy=0;entryX=0.5;entryY=0;entryDx=0;entryDy=0;exitPerimeter=0;" edge="1" parent="1" source="40" target="98">
                    <mxGeometry width="50" height="50" relative="1" as="geometry">
                        <mxPoint x="1159.248" y="19.695999999999913" as="sourcePoint"/>
                        <mxPoint x="1157.4999999999995" y="238" as="targetPoint"/>
                    </mxGeometry>
                </mxCell>
                <mxCell id="108" value="Un enfant peut être présent que&amp;nbsp;&lt;br&gt;dans une reservation.&lt;br&gt;Un reservation ne peut&amp;nbsp;&lt;br&gt;avoir qu'un enfant" style="ellipse;whiteSpace=wrap;html=1;fillColor=#bac8d3;strokeColor=#23445d;" vertex="1" parent="1">
                    <mxGeometry x="171" y="428" width="235" height="100" as="geometry"/>
                </mxCell>
                <mxCell id="109" value="" style="endArrow=none;html=1;entryX=0.5;entryY=0;entryDx=0;entryDy=0;startArrow=none;" edge="1" parent="1" source="111" target="108">
                    <mxGeometry width="50" height="50" relative="1" as="geometry">
                        <mxPoint x="185.1840000000002" y="298.6410000000001" as="sourcePoint"/>
                        <mxPoint x="142" y="348" as="targetPoint"/>
                    </mxGeometry>
                </mxCell>
                <mxCell id="110" value="" style="endArrow=none;html=1;exitX=0.5;exitY=1;exitDx=0;exitDy=0;startArrow=none;" edge="1" parent="1" source="113" target="49">
                    <mxGeometry width="50" height="50" relative="1" as="geometry">
                        <mxPoint x="82" y="378" as="sourcePoint"/>
                        <mxPoint x="57" y="409" as="targetPoint"/>
                    </mxGeometry>
                </mxCell>
                <mxCell id="111" value="0 , N" style="text;html=1;strokeColor=none;fillColor=none;align=center;verticalAlign=middle;whiteSpace=wrap;rounded=0;" vertex="1" parent="1">
                    <mxGeometry x="267" y="387" width="60" height="30" as="geometry"/>
                </mxCell>
                <mxCell id="112" value="" style="endArrow=none;html=1;entryX=0.5;entryY=0;entryDx=0;entryDy=0;" edge="1" parent="1" source="12" target="111">
                    <mxGeometry width="50" height="50" relative="1" as="geometry">
                        <mxPoint x="305.25" y="366.5" as="sourcePoint"/>
                        <mxPoint x="288.5" y="428" as="targetPoint"/>
                    </mxGeometry>
                </mxCell>
                <mxCell id="113" value="1" style="text;html=1;strokeColor=none;fillColor=none;align=center;verticalAlign=middle;whiteSpace=wrap;rounded=0;" vertex="1" parent="1">
                    <mxGeometry x="277" y="568" width="60" height="30" as="geometry"/>
                </mxCell>
                <mxCell id="114" value="" style="endArrow=none;html=1;exitX=0.5;exitY=1;exitDx=0;exitDy=0;startArrow=none;" edge="1" parent="1" source="108" target="113">
                    <mxGeometry width="50" height="50" relative="1" as="geometry">
                        <mxPoint x="288.5" y="528" as="sourcePoint"/>
                        <mxPoint x="333.82070707070716" y="665" as="targetPoint"/>
                    </mxGeometry>
                </mxCell>
                <mxCell id="116" value="Un slot peut correspond à plusieurs&amp;nbsp;&lt;br&gt;reservation, Une reservation&amp;nbsp;&lt;br&gt;correspond qu'un slot." style="ellipse;whiteSpace=wrap;html=1;fillColor=#bac8d3;strokeColor=#23445d;" vertex="1" parent="1">
                    <mxGeometry x="439" y="465" width="235" height="100" as="geometry"/>
                </mxCell>
                <mxCell id="117" value="" style="endArrow=none;html=1;startArrow=none;exitX=0.326;exitY=1.051;exitDx=0;exitDy=0;exitPerimeter=0;" edge="1" parent="1" source="120" target="116">
                    <mxGeometry width="50" height="50" relative="1" as="geometry">
                        <mxPoint x="1072.5" y="201" as="sourcePoint"/>
                        <mxPoint x="1072.5" y="259" as="targetPoint"/>
                    </mxGeometry>
                </mxCell>
                <mxCell id="118" value="" style="endArrow=none;html=1;entryX=0.5;entryY=0;entryDx=0;entryDy=0;startArrow=none;exitX=0.5;exitY=1;exitDx=0;exitDy=0;" edge="1" parent="1">
                    <mxGeometry width="50" height="50" relative="1" as="geometry">
                        <mxPoint x="1082.5" y="211" as="sourcePoint"/>
                        <mxPoint x="1082.5" y="269" as="targetPoint"/>
                    </mxGeometry>
                </mxCell>
                <mxCell id="119" value="" style="endArrow=none;html=1;startArrow=none;exitX=0.5;exitY=1;exitDx=0;exitDy=0;" edge="1" parent="1" source="122" target="49">
                    <mxGeometry width="50" height="50" relative="1" as="geometry">
                        <mxPoint x="665.9760000000001" y="376.46699999999987" as="sourcePoint"/>
                        <mxPoint x="598.6936069820622" y="476.9133465331229" as="targetPoint"/>
                    </mxGeometry>
                </mxCell>
                <mxCell id="120" value="0 , N" style="text;html=1;strokeColor=none;fillColor=none;align=center;verticalAlign=middle;whiteSpace=wrap;rounded=0;" vertex="1" parent="1">
                    <mxGeometry x="590" y="394" width="60" height="30" as="geometry"/>
                </mxCell>
                <mxCell id="121" value="" style="endArrow=none;html=1;startArrow=none;exitX=0.326;exitY=1.051;exitDx=0;exitDy=0;exitPerimeter=0;" edge="1" parent="1" source="32" target="120">
                    <mxGeometry width="50" height="50" relative="1" as="geometry">
                        <mxPoint x="655.9760000000001" y="366.46699999999987" as="sourcePoint"/>
                        <mxPoint x="588.6936069820622" y="466.9133465331229" as="targetPoint"/>
                    </mxGeometry>
                </mxCell>
                <mxCell id="122" value="1" style="text;html=1;strokeColor=none;fillColor=none;align=center;verticalAlign=middle;whiteSpace=wrap;rounded=0;" vertex="1" parent="1">
                    <mxGeometry x="458" y="604" width="60" height="30" as="geometry"/>
                </mxCell>
                <mxCell id="123" value="" style="endArrow=none;html=1;startArrow=none;exitX=0.5;exitY=1;exitDx=0;exitDy=0;" edge="1" parent="1" source="116" target="122">
                    <mxGeometry width="50" height="50" relative="1" as="geometry">
                        <mxPoint x="556.5" y="565" as="sourcePoint"/>
                        <mxPoint x="430.72360248447194" y="665" as="targetPoint"/>
                    </mxGeometry>
                </mxCell>
                <mxCell id="125" value="Un slot peut correspond à plusieurs&amp;nbsp;&lt;br&gt;reservation, Une reservation&amp;nbsp;&lt;br&gt;correspond qu'un slot." style="ellipse;whiteSpace=wrap;html=1;fillColor=#bac8d3;strokeColor=#23445d;" vertex="1" parent="1">
                    <mxGeometry x="590" y="640.5" width="235" height="100" as="geometry"/>
                </mxCell>
                <mxCell id="126" value="" style="endArrow=none;html=1;startArrow=none;exitX=0;exitY=0.5;exitDx=0;exitDy=0;entryX=1.007;entryY=0.148;entryDx=0;entryDy=0;entryPerimeter=0;" edge="1" parent="1" source="130" target="51">
                    <mxGeometry width="50" height="50" relative="1" as="geometry">
                        <mxPoint x="566.5" y="575" as="sourcePoint"/>
                        <mxPoint x="517.0277777777778" y="614" as="targetPoint"/>
                    </mxGeometry>
                </mxCell>
                <mxCell id="127" value="" style="endArrow=none;html=1;startArrow=none;exitX=1;exitY=0.5;exitDx=0;exitDy=0;" edge="1" parent="1" source="128" target="44">
                    <mxGeometry width="50" height="50" relative="1" as="geometry">
                        <mxPoint x="600" y="700.5" as="sourcePoint"/>
                        <mxPoint x="490.75" y="737.3600000000001" as="targetPoint"/>
                    </mxGeometry>
                </mxCell>
                <mxCell id="128" value="0 , N" style="text;html=1;strokeColor=none;fillColor=none;align=center;verticalAlign=middle;whiteSpace=wrap;rounded=0;" vertex="1" parent="1">
                    <mxGeometry x="851" y="678" width="60" height="30" as="geometry"/>
                </mxCell>
                <mxCell id="129" value="" style="endArrow=none;html=1;startArrow=none;exitX=1;exitY=0.5;exitDx=0;exitDy=0;" edge="1" parent="1" source="125" target="128">
                    <mxGeometry width="50" height="50" relative="1" as="geometry">
                        <mxPoint x="825" y="690.5" as="sourcePoint"/>
                        <mxPoint x="953" y="704.0836734693878" as="targetPoint"/>
                    </mxGeometry>
                </mxCell>
                <mxCell id="130" value="1" style="text;html=1;strokeColor=none;fillColor=none;align=center;verticalAlign=middle;whiteSpace=wrap;rounded=0;" vertex="1" parent="1">
                    <mxGeometry x="511" y="698" width="60" height="30" as="geometry"/>
                </mxCell>
                <mxCell id="131" value="" style="endArrow=none;html=1;startArrow=none;exitX=0;exitY=0.5;exitDx=0;exitDy=0;entryX=1.007;entryY=0.148;entryDx=0;entryDy=0;entryPerimeter=0;" edge="1" parent="1" source="125" target="130">
                    <mxGeometry width="50" height="50" relative="1" as="geometry">
                        <mxPoint x="590" y="690.5" as="sourcePoint"/>
                        <mxPoint x="480.75" y="727.3600000000001" as="targetPoint"/>
                    </mxGeometry>
                </mxCell>
            </root>
        </mxGraphModel>
    </diagram>
</mxfile>